PathFileType	4	(X/Y/Z)	C:\Data\4407\4407cd01.trc
DataRate	CameraRate	NumFrames	NumMarkers	Units	OrigDataRate	OrigDataStartFrame	OrigNumFrames
200.00	200.00	       11	33	mm	200.00	339	       451
Frame#	Time	Offset			RShoulder			RUpperArm			RElbow			RForearm			RWrist			LShoulder			LUpperArm			LElbow			LForearm			LWrist			LPSIS			RPSIS			RASIS			RThigh			RKnee			RShank			RAnkle			RHeel			RLat5			RToe			LASIS			LThigh			LKnee			LShank			LAnkle			LHeel			LLat5			LToe			RMed.Knee			LMed.Knee			RMed.Ankle			LMed.Ankle			
		X1	Y1	Z1	X2	Y2	Z2	X3	Y3	Z3	X4	Y4	Z4	X5	Y5	Z5	X6	Y6	Z6	X7	Y7	Z7	X8	Y8	Z8	X9	Y9	Z9	X10	Y10	Z10	X11	Y11	Z11	X12	Y12	Z12	X13	Y13	Z13	X14	Y14	Z14	X15	Y15	Z15	X16	Y16	Z16	X17	Y17	Z17	X18	Y18	Z18	X19	Y19	Z19	X20	Y20	Z20	X21	Y21	Z21	X22	Y22	Z22	X23	Y23	Z23	X24	Y24	Z24	X25	Y25	Z25	X26	Y26	Z26	X27	Y27	Z27	X28	Y28	Z28	X29	Y29	Z29	X30	Y30	Z30	X31	Y31	Z31	X32	Y32	Z32	X33	Y33	Z33	

339	1.690	329.02853	-308.21909	1395.43628	416.97171	-208.63365	1539.24390	539.25610	-272.62500	1404.42688	704.63141	-264.28537	1406.92480	847.75824	-248.66966	1328.33508	965.49731	-190.47968	1383.48669	129.49338	-216.81927	1541.31274	-7.17577	-284.53720	1387.78564	-138.44786	-288.46677	1397.15955	-279.62534	-278.54672	1327.34070	-421.93973	-208.65611	1345.86890	252.16779	-312.38126	1031.28467	301.71393	-311.87308	1033.34973	397.21582	-97.87646	1019.30200	370.51657	-102.25488	691.85516	452.56790	-202.00816	520.19885	420.47165	-173.61368	444.36261	462.53445	-247.34320	110.85403	417.88306	-303.44644	75.96646	515.95441	-108.15508	62.14505	410.52350	-92.28654	57.32850	143.24507	-104.13712	997.95978	147.50323	-112.51153	663.63837	99.11185	-205.90659	519.18597	132.32333	-178.43954	444.18372	93.15178	-267.08990	111.06887	145.73610	-319.01077	80.80910	41.54029	-122.05801	57.85199	150.30893	-105.26743	49.20816	342.50391	-197.36111	501.31799	202.40968	-192.89259	480.80634	376.50497	-207.90453	121.42671	178.93231	-222.43533	116.62707	
340	1.695	329.02689	-308.24939	1395.47766	416.97333	-208.58023	1539.24951	539.28754	-272.60071	1404.42432	704.61523	-264.28937	1406.93469	847.83142	-248.57460	1328.39221	965.50757	-190.41888	1383.47070	129.46980	-216.81905	1541.26233	-7.18896	-284.49243	1387.76306	-138.43317	-288.46609	1397.16748	-279.55881	-278.49841	1327.32251	-421.93134	-208.58362	1345.83752	252.13559	-312.45450	1031.35596	301.70084	-311.83374	1033.37280	397.25571	-97.89716	1019.28741	370.49844	-102.31475	691.88519	452.54990	-201.95726	520.21753	420.53836	-173.63852	444.32397	462.49805	-247.36850	110.87315	417.88867	-303.43124	75.92494	515.97461	-108.12887	62.14067	410.55118	-92.26978	57.28164	143.26698	-104.08144	997.97925	147.40152	-112.68423	663.54022	99.19305	-205.86911	519.20215	132.29149	-178.43784	444.20096	93.14940	-267.06024	111.06111	145.72641	-318.98434	80.82835	41.50203	-122.02176	57.83622	150.29817	-105.26477	49.20903	342.51773	-197.33289	501.30499	202.42590	-192.88902	480.80515	376.51129	-207.87149	121.33985	178.89035	-222.60310	116.56972	
341	1.700	329.08804	-308.19556	1395.49890	417.02975	-208.54993	1539.28748	539.29565	-272.59039	1404.44543	704.61841	-264.27103	1406.96069	847.84613	-248.53024	1328.38232	965.51782	-190.37204	1383.55286	129.48251	-216.81372	1541.26978	-7.17896	-284.54669	1387.77051	-138.41879	-288.46414	1397.16638	-279.57684	-278.44983	1327.29968	-421.89005	-208.56244	1345.81714	252.15344	-312.39792	1031.35010	301.69940	-311.85526	1033.37097	397.25323	-97.78074	1019.33453	370.55136	-102.29000	691.81226	452.50192	-201.89304	520.17224	420.46246	-173.63145	444.35071	462.52444	-247.34863	110.85959	417.87851	-303.43555	75.95776	515.96045	-108.16856	62.15309	410.46576	-92.28336	57.31010	143.26085	-104.08929	997.96967	147.49393	-112.71323	663.44397	99.11841	-205.92679	519.22235	132.37297	-178.45045	444.17911	93.14723	-267.06488	111.05489	145.73761	-318.98987	80.78914	41.49715	-122.05656	57.86809	150.36520	-105.32583	49.07359	342.50488	-197.30002	501.28693	202.43387	-192.89711	480.78122	376.58014	-207.80249	121.32245	178.84755	-222.58304	116.50435	
342	1.705	329.14197	-308.18054	1395.46729	417.00974	-208.46930	1539.26807	539.30493	-272.62546	1404.45264	704.62213	-264.23846	1407.00964	847.82782	-248.50354	1328.39685	965.57098	-190.30956	1383.54529	129.50555	-216.78523	1541.27234	-7.16284	-284.50668	1387.75793	-138.40057	-288.38715	1397.11914	-279.57230	-278.42599	1327.30786	-421.87866	-208.49910	1345.79749	252.17740	-312.35385	1031.27527	301.78119	-311.75610	1033.34082	397.28909	-97.83310	1019.34229	370.55368	-102.31438	691.82806	452.56650	-201.93602	520.22601	420.50351	-173.62294	444.32703	462.51495	-247.36015	110.86362	417.92136	-303.41849	75.88131	515.98309	-108.10961	62.15348	410.47949	-92.29975	57.31709	143.25110	-104.13022	997.99951	147.36357	-113.01060	663.36127	99.12357	-205.87596	519.20911	132.28941	-178.45638	444.16754	93.04127	-267.12424	111.15904	145.83035	-318.92972	80.79953	41.47515	-122.05604	57.85177	150.38524	-105.27354	49.07594	342.51965	-197.29195	501.29330	202.47382	-192.85718	480.80920	376.63956	-207.85423	121.39548	178.86101	-222.46136	116.55312	
343	1.710	329.06418	-308.24149	1395.53735	416.98611	-208.51662	1539.29663	539.33398	-272.56976	1404.45984	704.62097	-264.24792	1407.00818	847.82739	-248.48161	1328.40356	965.56281	-190.25482	1383.55566	129.54599	-216.78087	1541.27881	-7.15845	-284.50479	1387.76257	-138.36427	-288.39532	1397.10376	-279.58044	-278.36969	1327.27588	-421.86423	-208.47624	1345.77478	252.18610	-312.34967	1031.35193	301.80310	-311.77429	1033.38782	397.25461	-97.79400	1019.34851	370.54297	-102.37962	691.83868	452.55185	-201.93510	520.21423	420.54089	-173.60060	444.30722	462.53397	-247.32281	110.85827	417.86734	-303.43372	75.95120	515.94708	-108.14106	62.12667	410.53256	-92.28957	57.27999	143.24126	-104.08983	997.96045	147.50340	-112.64251	663.62122	99.15227	-205.87132	519.22546	132.36705	-178.44760	444.15051	93.14635	-267.07300	111.06959	145.71010	-319.03113	80.88773	41.48588	-122.05792	57.84524	150.47133	-105.24575	49.13489	342.51093	-197.30803	501.30466	202.43376	-192.84474	480.80045	376.56000	-207.90480	121.38962	178.86957	-222.48531	116.53372	
344	1.715	329.12732	-308.14359	1395.47119	417.02393	-208.49786	1539.27856	539.32001	-272.56363	1404.48279	704.61945	-264.23074	1407.01172	847.83490	-248.44525	1328.40686	965.59723	-190.12866	1383.54236	129.52049	-216.78412	1541.29578	-7.09632	-284.50031	1387.75220	-138.40218	-288.38028	1397.10938	-279.53854	-278.31912	1327.24866	-421.85098	-208.43188	1345.76599	252.21014	-312.34467	1031.28821	301.76285	-311.81985	1033.39307	397.27765	-97.80804	1019.35510	370.54016	-102.29284	691.82013	452.53342	-201.92395	520.17377	420.50223	-173.62038	444.36734	462.54846	-247.33054	110.84725	417.86069	-303.39578	75.92383	515.94794	-108.19656	62.16478	410.55090	-92.26521	57.31720	143.25305	-104.11269	997.95380	147.48796	-112.81715	663.43787	99.17948	-205.83711	519.21484	132.35509	-178.40584	444.16159	93.12704	-267.12012	111.06079	145.77777	-318.99088	80.81850	41.47391	-122.03416	57.84724	150.35455	-105.29374	49.18353	342.51251	-197.29857	501.29382	202.48582	-192.89209	480.80521	376.49802	-207.87628	121.46300	178.93333	-222.39464	116.63736	
345	1.720	329.11829	-308.13763	1395.45154	417.05219	-208.45270	1539.32275	539.32819	-272.54355	1404.47583	704.68225	-264.13705	1407.02954	847.79913	-248.39983	1328.62878	965.58521	-190.08633	1383.55981	129.50880	-216.81819	1541.28394	-7.11411	-284.48114	1387.77637	-138.39229	-288.38159	1397.08887	-279.52740	-278.30762	1327.25342	-421.82852	-208.41425	1345.69836	252.21281	-312.33008	1031.29553	301.78766	-311.70593	1033.37402	397.28342	-97.82563	1019.32501	370.56317	-102.32055	691.84039	452.53485	-201.89606	520.20746	420.56680	-173.70386	444.28534	462.54672	-247.31133	110.85207	417.91315	-303.44800	75.96812	515.99170	-108.12939	62.15421	410.56915	-92.31836	57.31669	143.26111	-104.08356	997.96869	147.49724	-112.69215	663.62238	99.18150	-205.82854	519.20483	132.33246	-178.43199	444.16400	93.21958	-266.94504	110.91761	145.71004	-318.98663	80.81449	41.51234	-121.98966	57.87722	150.42181	-105.31612	49.12888	342.54315	-197.27983	501.25473	202.45697	-192.80074	480.78986	376.57269	-207.87775	121.43791	178.95641	-222.70866	116.68872	
346	1.725	329.07416	-308.13309	1395.46411	417.05920	-208.43613	1539.32117	539.29913	-272.55441	1404.46667	704.65790	-264.18103	1407.07996	847.85016	-248.37772	1328.41748	965.57294	-189.99948	1383.59424	129.52376	-216.82167	1541.27502	-7.07671	-284.48862	1387.76221	-138.42146	-288.36099	1397.09583	-279.51685	-278.30988	1327.23181	-421.83643	-208.36975	1345.73389	252.18962	-312.35837	1031.30920	301.77478	-311.78323	1033.40430	397.29874	-97.80691	1019.35724	370.55936	-102.28349	691.82861	452.59741	-201.90242	520.15369	420.60260	-173.70685	444.20532	462.81265	-247.41798	110.82991	417.88593	-303.48282	75.96203	515.99878	-108.14944	62.15516	410.47876	-92.31340	57.26043	143.29651	-104.10158	997.97064	147.51503	-112.61711	663.43054	99.19415	-205.82549	519.22125	132.40236	-178.36497	444.17294	93.14075	-267.11569	111.04733	145.72482	-318.96521	80.86626	41.52789	-122.00876	57.89226	150.34630	-105.25668	49.04712	342.49469	-197.29247	501.18289	202.52122	-192.85747	480.81140	376.52753	-207.80586	121.44419	178.90454	-222.58487	116.55198	
347	1.730	329.04959	-308.08768	1395.56677	417.03009	-208.38937	1539.30127	539.33850	-272.49661	1404.49805	704.67773	-264.14755	1407.06677	847.80939	-248.37410	1328.64661	965.55469	-189.96579	1383.59216	129.51430	-216.80354	1541.27075	-7.09829	-284.47629	1387.78455	-138.35754	-288.33566	1397.09741	-279.54462	-278.28058	1327.24988	-421.83096	-208.27377	1345.72131	252.24573	-312.28821	1031.30347	301.73428	-311.76385	1033.37000	397.32785	-97.80567	1019.35388	370.54391	-102.29482	691.82574	452.55545	-201.89117	520.20282	420.55612	-173.73262	444.27682	462.49908	-247.37369	110.87148	417.91840	-303.44815	75.96661	515.98389	-108.18910	62.12819	410.51920	-92.34057	57.26805	143.30164	-104.05898	997.97778	147.49074	-112.82674	663.43323	99.18797	-205.80670	519.20099	132.38522	-178.39307	444.17142	93.15726	-267.07483	111.03958	145.64699	-319.00214	80.87642	41.50418	-122.09083	57.80354	150.34172	-105.32248	49.10714	342.55005	-197.26361	501.29065	202.48994	-192.79257	480.81546	376.63467	-207.86404	121.38720	178.89850	-222.62564	116.55952	
348	1.735	329.07373	-308.06891	1395.51233	417.05527	-208.35294	1539.32483	539.33063	-272.49399	1404.50366	704.70435	-264.10483	1407.09058	847.81946	-248.34232	1328.65295	965.55688	-189.88869	1383.57935	129.53903	-216.77196	1541.25110	-7.07403	-284.47055	1387.71704	-138.38336	-288.35422	1397.01611	-279.52060	-278.19647	1327.14282	-421.78696	-208.25288	1345.70691	252.24927	-312.33270	1031.28857	301.73569	-311.81494	1033.44092	397.29605	-97.79556	1019.32404	370.56119	-102.27699	691.81836	452.54639	-201.85004	520.23663	420.56738	-173.73001	444.24515	462.51489	-247.36278	110.86315	417.89676	-303.47040	75.94987	515.90497	-108.16028	62.15403	410.48584	-92.29433	57.29250	143.35199	-104.04987	997.97345	147.61601	-112.57686	663.50665	99.24386	-205.79250	519.22870	132.38699	-178.37909	444.16577	93.16190	-267.03128	111.05650	145.76215	-318.97348	80.82368	41.46337	-122.06134	57.85730	150.38551	-105.28956	49.09548	342.52692	-197.28568	501.29330	202.44695	-192.83473	480.78354	376.59540	-207.91188	121.38557	178.89308	-222.47116	116.55200	
349	1.740	329.14209	-308.04254	1395.42041	417.10516	-208.36459	1539.31311	539.34265	-272.42819	1404.50562	704.75153	-264.07275	1407.07080	847.82507	-248.34914	1328.65540	965.56006	-189.79691	1383.57117	129.59457	-216.78412	1541.28369	-7.08317	-284.46564	1387.70996	-138.35239	-288.22318	1396.98267	-279.52103	-278.13519	1327.06812	-421.78369	-208.20067	1345.68921	252.25020	-312.23898	1031.40918	301.79434	-311.70557	1033.41125	397.30420	-97.76534	1019.33496	370.59241	-102.28008	691.83099	452.52567	-201.87724	520.18207	420.58749	-173.69807	444.21014	462.57645	-247.58186	110.78065	417.89975	-303.41843	75.94788	515.94385	-108.17329	62.13741	410.45410	-92.30807	57.34986	143.28885	-104.08419	997.99042	147.40529	-112.83232	663.33313	99.22717	-205.78093	519.20850	132.38066	-178.33203	444.17416	93.18072	-267.07465	111.06866	145.74109	-318.97455	80.82116	41.53017	-122.05010	57.84314	150.32394	-105.27094	49.09286	342.52573	-197.28648	501.29303	202.50742	-192.83557	480.81024	376.62994	-207.88826	121.37034	178.86797	-222.40297	116.51472	
